<?xml version="1.0" encoding="utf-8"?>
<!-- Generator: Adobe Illustrator 25.0.0, SVG Export Plug-In . SVG Version: 6.00 Build 0)  -->
<svg version="1.1" id="Layer_1" xmlns="http://www.w3.org/2000/svg" xmlns:xlink="http://www.w3.org/1999/xlink" x="0px" y="0px"
	 viewBox="0 0 100 100" style="enable-background:new 0 0 100 100;" xml:space="preserve">
<style type="text/css">
	.st0{fill:#BB374B;}
</style>
<g id="SvgjsG3253" transform="matrix(1.287462378373398,0,0,1.287462378373398,-14.373229422452226,1.6684027301997606)">
	<path class="st0" d="M81.5,75.7H20V73h61.5V75.7z M50.7-1c-1.3,5.8-3.6,11.1-6.2,16.2c-1.9,3.7-3.8,7.4-5.4,11.4
		c-1.3,3.2-1.8,6.6-1.2,10.1c1.1,6.3,5.7,11.3,11.1,12c5.7,0.8,11.1-2.6,13.5-8.5c1.9-4.6,1.6-9.3-0.3-13.8c-1.7-4.1-3.7-8-5.7-11.9
		C54.8,10.7,53.1,7,52,3c-0.4-1.4-0.8-2.8-1.2-4.3C50.7-1.1,50.7-1.1,50.7-1z M66.7,51.2c-2.3,1.4-4.6,3.3-6.3,5.4
		c-0.4,0.5-0.8,1.1-1.2,1.6c-0.4,0.5-0.7,1-1,1.6c-0.5,1.1-1.1,2-1.4,2.8c-0.6,1.7-0.9,2.7-0.9,2.7s0.8-0.7,2.1-1.8
		c0.6-0.5,1.5-1,2.4-1.6c0.4-0.3,0.9-0.5,1.4-0.8c0.5-0.2,1-0.5,1.5-0.7c2.1-0.9,4.3-1.3,6.2-1.6c2-0.2,3.6-0.3,4.6-0.4
		c2-0.3,3.8-0.9,5.2-1.7c1.4-0.8,2.4-1.9,2.7-3.2c0.2-1.3-0.7-2.7-2.4-3.6c-1.7-0.9-4.3-1.4-7-0.9C71.2,49,69,49.9,66.7,51.2z
		 M32.9,62.4c1.8-0.1,3.8-0.1,5.7,0.1c1.9,0.2,3.7,0.8,5,1.4c0.6,0.3,1.1,0.6,1.5,0.9c0.4,0.2,0.6,0.3,0.6,0.3s-0.1-0.2-0.3-0.6
		c-0.2-0.4-0.4-1-0.8-1.7c-0.8-1.3-2.1-3.2-4-4.7C37,55,31.7,53.1,29.4,53c-4.7-0.3-8.2,2.3-7.8,4.9c0.4,2.6,3.5,4.4,7.1,4.7
		C29.6,62.7,31.1,62.5,32.9,62.4z M31.9,46.9c1.1,0.2,2.1,0.5,2.8,0.8c0.7,0.3,1.2,0.6,1.2,0.6s-0.1-0.1-0.2-0.3
		c-0.1-0.2-0.3-0.5-0.5-0.9c-0.5-0.7-1.2-1.7-2.1-2.5c-1.8-1.8-4.4-3.2-5.6-3.5c-2.4-0.6-4.6,0.5-4.7,2c-0.1,1.5,1.4,2.8,3.4,3.3
		C27.3,46.5,29.7,46.5,31.9,46.9z"/>
</g>
</svg>
