<svg width="356" height="132" viewBox="0 0 356 132" class="css-1j8o68f"><defs id="SvgjsDefs3252"></defs><g id="SvgjsG3253" featurekey="LwVBM5-0" transform="matrix(1.287462378373398,0,0,1.287462378373398,-14.373229422452226,1.6684027301997606)" fill="#e7e7e7"><path xmlns="http://www.w3.org/2000/svg" fill="#e7e7e7" d="M88.122,98.189H11.164v-3.372h76.958V98.189z M49.512,2.119c-1.683,7.208-4.469,13.836-7.76,20.217  c-2.393,4.643-4.72,9.324-6.734,14.208c-1.654,4.014-2.218,8.227-1.459,12.61c1.363,7.889,7.148,14.105,13.926,15.036  c7.179,0.981,13.903-3.211,16.941-10.654c2.373-5.816,2.059-11.611-0.317-17.326c-2.123-5.104-4.616-9.975-7.085-14.86  c-2.3-4.553-4.397-9.216-5.891-14.217c-0.517-1.723-0.974-3.462-1.5-5.322C49.559,1.997,49.529,2.057,49.512,2.119z M69.638,67.474  c-2.861,1.725-5.751,4.141-7.914,6.771c-0.556,0.64-1.012,1.366-1.476,2.011c-0.44,0.674-0.928,1.257-1.244,1.944  c-0.669,1.324-1.335,2.441-1.713,3.488c-0.764,2.095-1.18,3.359-1.18,3.359s1.046-0.868,2.677-2.224  c0.8-0.659,1.896-1.271,2.963-1.991c0.515-0.38,1.18-0.626,1.784-0.947c0.625-0.291,1.216-0.64,1.878-0.888  c2.615-1.064,5.411-1.678,7.811-2.024c2.455-0.249,4.478-0.388,5.735-0.544c2.465-0.418,4.717-1.161,6.5-2.185  c1.771-1.025,3.04-2.34,3.332-3.977c0.292-1.632-0.845-3.359-3.012-4.526c-2.142-1.174-5.349-1.77-8.807-1.184  C75.249,64.787,72.508,65.852,69.638,67.474z M27.24,81.576c2.204-0.155,4.707-0.153,7.098,0.173  c2.437,0.247,4.603,1.063,6.277,1.789c0.786,0.401,1.409,0.812,1.875,1.076c0.461,0.279,0.72,0.434,0.72,0.434  s-0.113-0.273-0.315-0.762c-0.219-0.485-0.507-1.232-0.964-2.104c-0.988-1.644-2.612-3.993-4.954-5.874  c-4.574-4.019-11.175-6.378-14.031-6.563c-5.846-0.418-10.304,2.869-9.809,6.176c0.483,3.299,4.417,5.549,8.917,5.881  C23.183,81.91,25.059,81.687,27.24,81.576z M26.03,62.12c1.376,0.222,2.615,0.622,3.56,0.975c0.904,0.394,1.508,0.696,1.508,0.696  s-0.077-0.147-0.206-0.404c-0.142-0.253-0.334-0.654-0.62-1.099c-0.577-0.87-1.478-2.08-2.648-3.15c-2.3-2.241-5.504-4-6.999-4.355  c-3.029-0.723-5.724,0.571-5.84,2.442c-0.116,1.855,1.783,3.537,4.268,4.143C20.3,61.665,23.326,61.598,26.03,62.12z"></path></g><g id="SvgjsG3254" featurekey="textGroupContainer" transform="matrix(1,0,0,1,355,0)" fill="#eff0f4"><rect xmlns="http://www.w3.org/2000/svg" y="0" height="1" width="1" opacity="0"></rect><rect xmlns="http://www.w3.org/2000/svg" y="0" x="-235" width="3" height="132"></rect></g><g id="SvgjsG3255" featurekey="YhTCwJ-0" transform="matrix(2.675943346486911,0,0,2.675943346486911,133.2903384597136,18.33583168620138)" fill="#eff0f4"><path d="M6.06 5.84 q2.28 0 3.55 0.98 t1.31 2.9 q0 1.86 -1.24 2.87 t-3.32 1.05 l-2.92 0 l0 6.36 l-1.68 0 l0 -14.16 l4.3 0 z M6.36 12.08 q1.28 0 2.02 -0.62 t0.74 -1.72 t-0.73 -1.72 t-2.03 -0.62 l-2.92 0 l0 4.68 l2.92 0 z M20.2 5.48 q3.2 0 5.28 2.1 t2.12 5.34 q-0.02 3.3 -2.14 5.36 t-5.26 2.08 q-3.2 0 -5.28 -2.11 t-2.12 -5.33 q0 -3.2 2.08 -5.3 t5.32 -2.14 z M14.6 12.92 q0 2.54 1.6 4.19 t4 1.69 q2.4 0 3.98 -1.68 t1.62 -4.2 q0 -2.46 -1.56 -4.15 t-4.06 -1.73 q-2.44 0.02 -3.99 1.71 t-1.59 4.17 z M32.8 5.84 l4.8 11.1 l0.04 0 l4.84 -11.1 l2.44 0 l0 14.16 l-1.68 0 l0 -11.88 l-0.04 0 l-5.08 11.88 l-1.02 0 l-5.08 -11.88 l-0.04 0 l0 11.88 l-1.68 0 l0 -14.16 l2.5 0 z M54.62 5.84 l6.02 14.16 l-1.96 0 l-1.44 -3.48 l-7.08 0 l-1.46 3.48 l-1.9 0 l6.24 -14.16 l1.58 0 z M53.76 8 l-2.94 6.96 l5.78 0 l-2.8 -6.96 l-0.04 0 z M69.1 5.48 q3.2 0 5.28 2.1 t2.12 5.34 q-0.02 3.3 -2.14 5.36 t-5.26 2.08 q-3.2 0 -5.28 -2.11 t-2.12 -5.33 q0 -3.2 2.08 -5.3 t5.32 -2.14 z M63.5 12.92 q0 2.54 1.6 4.19 t4 1.69 q2.4 0 3.98 -1.68 t1.62 -4.2 q0 -2.46 -1.56 -4.15 t-4.06 -1.73 q-2.44 0.02 -3.99 1.71 t-1.59 4.17 z"></path></g><g id="SvgjsG3256" featurekey="duLK5n-0" transform="matrix(1.0850400737256385,0,0,1.0850400737256385,136.58944795589542,77.22758972584468)" fill="#eff0f4"><path d="M1.3 20 l0 -14.24 l9 0 l0 1.74 l-7.2 0 l0 3.34 l3.96 0 l0 1.76 l-3.96 0 l0 7.4 l-1.8 0 z M32.036 12.42 l5.5 7.58 l-2.06 0 l-5.44 -7.48 l-2.04 0 l0 7.48 l-1.72 0 l0 -14.24 l4.94 0 c0.9 0 1.74 0.36 2.38 1 s1 1.48 1 2.38 c0 1.58 -1.1 2.9 -2.56 3.28 z M27.996000000000002 7.48 l0 3.32 l3.22 0 c0.92 0 1.66 -0.74 1.66 -1.66 s-0.74 -1.66 -1.66 -1.66 l-3.22 0 z M63.05200000000001 20 l-1.58 -4.14 l-5.82 0 l-1.58 4.14 l-1.92 0 l5.48 -14.24 l1.86 0 l5.5 14.24 l-1.94 0 z M60.772000000000006 14.1 l-2.2 -5.76 l-2.22 5.76 l4.42 0 z M90.868 20 l-7.62 -11.26 l0 11.26 l-1.8 0 l0 -14.24 l1.96 0 l7.6 11.26 l0 -11.26 l1.8 0 l0 14.24 l-1.94 0 z M117.004 18.46 c1.78 0 3.44 -0.82 4.54 -2.26 l1.4 1.04 c-1.42 1.9 -3.6 2.98 -5.94 2.98 c-4.12 0 -7.46 -3.34 -7.46 -7.46 c0 -4.1 3.34 -7.44 7.46 -7.44 c2.36 0 4.54 1.1 5.96 3 l-1.42 1.04 c-1.08 -1.46 -2.74 -2.28 -4.54 -2.28 c-3.16 0 -5.7 2.54 -5.7 5.68 c0 3.16 2.54 5.7 5.7 5.7 z M139.76000000000002 20 l0 -14.24 l9 0 l0 1.72 l-7.2 0 l0 3.34 l6.28 0 l0 1.78 l-6.28 0 l0 5.64 l7.02 0 l0 1.76 l-8.82 0 z"></path></g></svg>
